<?xml version="1.0" encoding="UTF-8" standalone="no"?>
<!-- Created with Inkscape (http://www.inkscape.org/) -->

<svg
   xmlns:dc="http://purl.org/dc/elements/1.1/"
   xmlns:cc="http://creativecommons.org/ns#"
   xmlns:rdf="http://www.w3.org/1999/02/22-rdf-syntax-ns#"
   xmlns:svg="http://www.w3.org/2000/svg"
   xmlns="http://www.w3.org/2000/svg"
   xmlns:xlink="http://www.w3.org/1999/xlink"
   xmlns:sodipodi="http://sodipodi.sourceforge.net/DTD/sodipodi-0.dtd"
   xmlns:inkscape="http://www.inkscape.org/namespaces/inkscape"
   width="469.91806"
   height="124.64567"
   id="svg2985"
   version="1.1"
   inkscape:version="0.92.4 (5da689c313, 2019-01-14)"
   sodipodi:docname="python-wavefile-banner.svg"
   inkscape:export-filename="/home/vokimon/CajitasDeArena/vokiweb/hyde-coder/content/coder/media/images/python-wavefile-logo.png"
   inkscape:export-xdpi="720"
   inkscape:export-ydpi="720"
   viewBox="0 0 469.91806 124.64567">
  <defs
     id="defs2987">
    <linearGradient
       id="linearGradient4451"
       inkscape:collect="always">
      <stop
         id="stop4453"
         offset="0"
         style="stop-color:#1e4b00;stop-opacity:1" />
      <stop
         id="stop4455"
         offset="1"
         style="stop-color:#51c700;stop-opacity:1" />
    </linearGradient>
    <linearGradient
       inkscape:collect="always"
       id="linearGradient3961">
      <stop
         style="stop-color:#782121;stop-opacity:1;"
         offset="0"
         id="stop3963" />
      <stop
         style="stop-color:#782121;stop-opacity:0;"
         offset="1"
         id="stop3965" />
    </linearGradient>
    <linearGradient
       inkscape:collect="always"
       xlink:href="#linearGradient4451"
       id="linearGradient4447"
       gradientUnits="userSpaceOnUse"
       x1="31.653353"
       y1="54.882961"
       x2="40.716648"
       y2="70.882957"
       gradientTransform="matrix(2.0016505,0,0,2.0016505,3.151932,-0.52689156)" />
    <linearGradient
       inkscape:collect="always"
       xlink:href="#linearGradient3961"
       id="linearGradient4449"
       gradientUnits="userSpaceOnUse"
       x1="20.50565"
       y1="46.587147"
       x2="43.49435"
       y2="46.587147"
       gradientTransform="matrix(0.99855696,0,0,0.99855696,0.04617933,0.09269584)" />
    <linearGradient
       inkscape:collect="always"
       xlink:href="#linearGradient3961-5"
       id="linearGradient4449-4"
       gradientUnits="userSpaceOnUse"
       x1="20.50565"
       y1="46.587147"
       x2="43.49435"
       y2="46.587147"
       gradientTransform="matrix(0.99855696,0,0,0.99855696,0.04617933,0.09269584)" />
    <linearGradient
       inkscape:collect="always"
       id="linearGradient3961-5">
      <stop
         style="stop-color:#782121;stop-opacity:1;"
         offset="0"
         id="stop3963-8" />
      <stop
         style="stop-color:#782121;stop-opacity:0;"
         offset="1"
         id="stop3965-4" />
    </linearGradient>
    <linearGradient
       y2="46.587147"
       x2="43.49435"
       y1="46.587147"
       x1="20.50565"
       gradientTransform="matrix(0.99855696,0,0,0.99855696,7.6825439,-6.9744609)"
       gradientUnits="userSpaceOnUse"
       id="linearGradient4631"
       xlink:href="#linearGradient3961-5"
       inkscape:collect="always" />
    <linearGradient
       inkscape:collect="always"
       xlink:href="#linearGradient3961-3"
       id="linearGradient4449-47"
       gradientUnits="userSpaceOnUse"
       x1="20.50565"
       y1="46.587147"
       x2="43.49435"
       y2="46.587147"
       gradientTransform="matrix(2.0016505,0,0,2.0016505,3.151932,-0.52689156)" />
    <linearGradient
       inkscape:collect="always"
       id="linearGradient3961-3">
      <stop
         style="stop-color:#782121;stop-opacity:1;"
         offset="0"
         id="stop3963-9" />
      <stop
         style="stop-color:#782121;stop-opacity:0;"
         offset="1"
         id="stop3965-0" />
    </linearGradient>
    <linearGradient
       y2="46.587147"
       x2="43.49435"
       y1="46.587147"
       x1="20.50565"
       gradientTransform="matrix(0.99855696,0,0,0.99855696,-20.476057,-42.510275)"
       gradientUnits="userSpaceOnUse"
       id="linearGradient4631-4"
       xlink:href="#linearGradient3961-3"
       inkscape:collect="always" />
  </defs>
  <sodipodi:namedview
     id="base"
     pagecolor="#ffffff"
     bordercolor="#666666"
     borderopacity="1.0"
     inkscape:pageopacity="0.0"
     inkscape:pageshadow="2"
     inkscape:zoom="1.8186945"
     inkscape:cx="237.98751"
     inkscape:cy="17.834552"
     inkscape:current-layer="layer1"
     showgrid="true"
     inkscape:document-units="px"
     inkscape:grid-bbox="true"
     inkscape:snap-global="false"
     showguides="false"
     inkscape:window-width="1817"
     inkscape:window-height="1011"
     inkscape:window-x="50"
     inkscape:window-y="0"
     inkscape:window-maximized="0"
     scale-x="1"
     fit-margin-top="0"
     fit-margin-left="0"
     fit-margin-right="0"
     fit-margin-bottom="0" />
  <metadata
     id="metadata2990">
    <rdf:RDF>
      <cc:Work
         rdf:about="">
        <dc:format>image/svg+xml</dc:format>
        <dc:type
           rdf:resource="http://purl.org/dc/dcmitype/StillImage" />
        <dc:title></dc:title>
      </cc:Work>
    </rdf:RDF>
  </metadata>
  <g
     id="layer1"
     inkscape:label="Layer 1"
     inkscape:groupmode="layer"
     transform="translate(1,58.545977)">
    <rect
       style="opacity:1;vector-effect:none;fill:#fff1b8;fill-opacity:1;stroke:#000000;stroke-width:1;stroke-linecap:round;stroke-linejoin:bevel;stroke-miterlimit:4;stroke-dasharray:none;stroke-dashoffset:0;stroke-opacity:1;paint-order:fill markers stroke"
       id="rect923"
       width="467.91806"
       height="61.582634"
       x="0"
       y="3.5170557"
       ry="0" />
    <g
       id="g878"
       transform="translate(340.42024,-63.496707)">
      <g
         style="stroke-width:0.90671563;stroke-miterlimit:4;stroke-dasharray:none"
         transform="matrix(2.2761218,0,0,2.1864127,-6.245206,-15.92217)"
         id="g3050">
        <path
           inkscape:connector-curvature="0"
           style="color:#000000;display:inline;overflow:visible;visibility:visible;fill:#330080;fill-opacity:1;fill-rule:nonzero;stroke:#000000;stroke-width:0.90671563;stroke-linecap:round;stroke-linejoin:bevel;stroke-miterlimit:4;stroke-dasharray:none;stroke-dashoffset:0;stroke-opacity:1;marker:none;enable-background:accumulate"
           d="m 32.5,10 c -7.420781,0 -13.600931,8.192301 -15.1875,19.15625 h 1.09375 C 19.942682,20.314986 25.666025,13.75 32.5,13.75 c 6.833975,0 12.58188,6.564986 14.125,15.40625 h 1.09375 C 46.125716,18.192301 39.920781,10 32.5,10 Z"
           id="path3042" />
        <path
           sodipodi:nodetypes="sssss"
           inkscape:connector-curvature="0"
           id="path3040"
           d="m 14.52783,31.151676 c 0,4.082754 -1.496572,7.39248 -3.342687,7.39248 -1.8461143,0 -2.2152144,-3.309726 -2.2152144,-7.39248 0,-4.082754 0.3691001,-7.39248 2.2152144,-7.39248 1.846115,0 3.342687,3.309726 3.342687,7.39248 z"
           style="color:#000000;display:inline;overflow:visible;visibility:visible;fill:#921d02;fill-opacity:1;fill-rule:nonzero;stroke:#000000;stroke-width:0.90671557;stroke-linecap:round;stroke-linejoin:bevel;stroke-miterlimit:4;stroke-dasharray:none;stroke-dashoffset:0;stroke-opacity:1;marker:none;enable-background:accumulate"
           transform="translate(35.741034,1.1570838)" />
        <path
           sodipodi:nodetypes="sssss"
           inkscape:connector-curvature="0"
           id="path3038"
           d="m 13.541292,31.310544 c 0,4.082754 -0.510034,7.233612 -2.356149,7.233612 -1.8461143,0 -3.3426859,-3.309726 -3.3426859,-7.39248 0,-4.082754 1.4965716,-7.39248 3.3426859,-7.39248 1.846115,0 2.356149,3.468594 2.356149,7.551348 z"
           style="color:#000000;display:inline;overflow:visible;visibility:visible;fill:#921d02;fill-opacity:1;fill-rule:nonzero;stroke:#000000;stroke-linecap:round;stroke-linejoin:bevel;stroke-dashoffset:0;stroke-opacity:1;marker:none;enable-background:accumulate"
           transform="translate(6.4282435,1.1570838)" />
      </g>
      <rect
         ry="0"
         y="68.409157"
         x="46.794407"
         height="58.63657"
         width="40.820686"
         id="rect3839"
         style="color:#000000;display:inline;overflow:visible;visibility:visible;fill:url(#linearGradient4447);fill-opacity:1;fill-rule:nonzero;stroke:#000000;stroke-width:2.00165033;stroke-linecap:round;stroke-linejoin:bevel;stroke-miterlimit:4;stroke-dasharray:none;stroke-dashoffset:0;stroke-opacity:1;marker:none;enable-background:accumulate" />
      <path
         sodipodi:open="true"
         sodipodi:end="6.2825531"
         sodipodi:start="0"
         d="M 96.012236,67.27507 A 28.807493,39.592564 0 0 1 67.209296,106.86763 28.807493,39.592564 0 0 1 38.397251,67.287586 28.807493,39.592564 0 0 1 67.191083,27.682511 28.807493,39.592564 0 0 1 96.01223,67.250039"
         sodipodi:ry="39.592564"
         sodipodi:rx="28.807493"
         sodipodi:cy="67.27507"
         sodipodi:cx="67.204742"
         id="path3034"
         style="color:#000000;display:inline;overflow:visible;visibility:visible;fill:#447821;stroke:#000000;stroke-width:2.00165033;stroke-linecap:round;stroke-linejoin:bevel;stroke-miterlimit:4;stroke-dasharray:none;stroke-dashoffset:0;stroke-opacity:1;marker:none;enable-background:accumulate"
         sodipodi:type="arc" />
      <path
         style="color:#000000;display:inline;overflow:visible;visibility:visible;fill:url(#linearGradient4449-47);fill-opacity:1;fill-rule:nonzero;stroke:#000000;stroke-width:2.00165033;stroke-linecap:round;stroke-linejoin:bevel;stroke-miterlimit:4;stroke-dasharray:none;stroke-dashoffset:0;stroke-opacity:1;marker:none;enable-background:accumulate"
         d="m 96.012237,60.17963 c 0,21.866368 -12.897557,39.592561 -28.807495,39.592561 -15.909937,0 -28.807492,-17.726193 -28.807492,-39.592561 0,-11.270973 1.864247,-22.830806 7.363908,-30.04123 5.170013,-6.778238 13.734388,-9.551337 21.443584,-9.551337 8.073036,0 16.412473,2.480949 21.642971,9.834724 5.072902,7.132204 7.159569,18.971673 7.164516,29.732811"
         id="path4614"
         inkscape:connector-curvature="0"
         sodipodi:nodetypes="csssssc" />
      <path
         sodipodi:nodetypes="ccacccac"
         inkscape:connector-curvature="0"
         id="path3036"
         d="m 63.388368,90.252255 8.311894,0.222851 c 0,0 -1.683958,7.736432 -0.863396,11.487804 0.999463,4.56928 6.797403,12.27559 6.797403,12.27559 l -11.095192,-7.81156 -7.263418,8.27111 c 0,0 2.662374,-7.07181 3.329614,-10.76962 0.810844,-4.493624 0.348131,-10.489475 0.783095,-13.676175 z"
         style="fill:#d40000;fill-opacity:1;stroke:#000000;stroke-width:2.00165033;stroke-linecap:round;stroke-linejoin:round;stroke-miterlimit:4;stroke-dasharray:none;stroke-opacity:1" />
      <path
         sodipodi:nodetypes="ssscsccsscccccccccccccccccccccccc"
         inkscape:connector-curvature="0"
         id="path3008"
         d="m 67.204744,20.585566 c -7.709196,0 -16.253541,2.743341 -21.423555,9.52158 -5.49966,7.210423 -7.391752,18.797173 -7.391752,30.068147 0,9.72773 2.593181,18.602504 6.827975,25.495282 6.062137,4.740427 13.304788,3.570592 21.62287,3.570592 8.31808,0 16.289659,1.169835 22.351794,-3.570592 C 93.42687,78.777797 96.020051,69.903023 96.020051,60.175293 96.015151,49.414155 93.405074,36.09471 88.514404,29.691431 83.036862,22.519773 75.27778,20.585566 67.204744,20.585566 Z m 21.987332,65.085009 c -0.660541,1.074982 -1.328435,2.096758 -2.067185,3.069456 0.732512,-0.96551 1.411986,-2.003019 2.067185,-3.069456 z m -2.067185,3.069456 c -0.73875,0.972699 -1.507304,1.894999 -2.317753,2.756247 0.81354,-0.864351 1.576703,-1.779483 2.317753,-2.756247 z m -2.317753,2.756247 c -0.688958,0.732141 -1.45605,1.421714 -2.192469,2.067185 0.744178,-0.650719 1.496772,-1.328038 2.192469,-2.067185 z M 45.217412,85.670575 c 0.655199,1.066437 1.334672,2.103946 2.067185,3.069456 -0.738751,-0.972698 -1.406642,-1.994474 -2.067185,-3.069456 z m 2.067185,3.069456 c 0.741049,0.976764 1.504213,1.891896 2.317753,2.756247 -0.810449,-0.861248 -1.579003,-1.783548 -2.317753,-2.756247 z m 2.317753,2.756247 c 0.695696,0.739147 1.44829,1.416466 2.192469,2.067185 C 51.0584,92.917992 50.291307,92.228419 49.60235,91.496278 Z m 8.331382,6.138913 c 0.435812,0.203632 0.870569,0.388433 1.315481,0.563778 -0.443796,-0.175277 -0.880774,-0.360288 -1.315481,-0.563778 z m 18.542024,0 c -0.434708,0.20349 -0.871686,0.388493 -1.315482,0.563778 0.444913,-0.175337 0.87967,-0.360146 1.315482,-0.563778 z"
         style="color:#000000;display:inline;overflow:visible;visibility:visible;fill:#447821;stroke:#000000;stroke-width:2.00165033;stroke-linecap:round;stroke-linejoin:bevel;stroke-miterlimit:4;stroke-dashoffset:0;stroke-opacity:1;marker:none;enable-background:accumulate" />
      <g
         style="stroke-width:1;stroke-miterlimit:4;stroke-dasharray:none"
         transform="matrix(2.0016504,0,0,2.0016504,3.879806,-0.52689156)"
         id="g3888">
        <g
           style="stroke-width:1;stroke-miterlimit:4;stroke-dasharray:none"
           id="g3879"
           transform="translate(-2.3636364)">
          <path
             transform="matrix(1.1028816,0,0,1.1028816,1.663526,-7.0060057)"
             sodipodi:open="true"
             sodipodi:end="6.2825531"
             sodipodi:start="0"
             d="m 25.841538,28.451813 a 2.8284271,4.8211827 0 0 1 -2.82798,4.821182 2.8284271,4.8211827 0 0 1 -2.828874,-4.819658 2.8284271,4.8211827 0 0 1 2.827086,-4.822706 2.8284271,4.8211827 0 0 1 2.829768,4.818134"
             sodipodi:ry="4.8211827"
             sodipodi:rx="2.8284271"
             sodipodi:cy="28.451813"
             sodipodi:cx="23.013111"
             id="path2997"
             style="color:#000000;display:inline;overflow:visible;visibility:visible;fill:#d5ffe6;stroke:#000000;stroke-width:0.90671563;stroke-linecap:round;stroke-linejoin:bevel;stroke-miterlimit:4;stroke-dasharray:none;stroke-dashoffset:0;stroke-opacity:1;marker:none;enable-background:accumulate"
             sodipodi:type="arc" />
          <path
             transform="matrix(1.1028816,0,0,1.1028816,1.663526,-7.0060057)"
             sodipodi:type="arc"
             style="color:#000000;display:inline;overflow:visible;visibility:visible;fill:#d5ffe6;stroke:#000000;stroke-width:0.90671563;stroke-linecap:round;stroke-linejoin:bevel;stroke-miterlimit:4;stroke-dasharray:none;stroke-dashoffset:0;stroke-opacity:1;marker:none;enable-background:accumulate"
             id="path2999"
             sodipodi:cx="23.013111"
             sodipodi:cy="28.451813"
             sodipodi:rx="2.8284271"
             sodipodi:ry="4.8211827"
             d="m 25.841538,28.451813 a 2.8284271,4.8211827 0 0 1 -2.82798,4.821182 2.8284271,4.8211827 0 0 1 -2.828874,-4.819658 2.8284271,4.8211827 0 0 1 2.827086,-4.822706 2.8284271,4.8211827 0 0 1 2.829768,4.818134"
             sodipodi:start="0"
             sodipodi:end="6.2825531"
             sodipodi:open="true" />
          <path
             transform="matrix(1.1028816,0,0,1.1028816,63.450646,0.43636583)"
             sodipodi:open="true"
             sodipodi:end="6.2825531"
             sodipodi:start="0"
             d="m -30.34131,22.216417 a 1.5427784,2.4427326 0 0 1 -1.542535,2.442733 1.5427784,2.4427326 0 0 1 -1.543022,-2.441961 1.5427784,2.4427326 0 0 1 1.542047,-2.443504 1.5427784,2.4427326 0 0 1 1.54351,2.441188"
             sodipodi:ry="2.4427326"
             sodipodi:rx="1.5427784"
             sodipodi:cy="22.216417"
             sodipodi:cx="-31.884089"
             id="path3026"
             style="color:#000000;display:inline;overflow:visible;visibility:visible;fill:#8e2ea6;fill-opacity:1;fill-rule:nonzero;stroke:#000000;stroke-width:0.90671563;stroke-linecap:round;stroke-linejoin:bevel;stroke-miterlimit:4;stroke-dasharray:none;stroke-dashoffset:0;stroke-opacity:1;marker:none;enable-background:accumulate"
             sodipodi:type="arc" />
        </g>
        <g
           style="stroke-width:1;stroke-miterlimit:4;stroke-dasharray:none"
           id="g3884"
           transform="translate(1.6363636)">
          <path
             transform="matrix(1.1028816,0,0,1.1028816,11.575,-7.0060057)"
             sodipodi:open="true"
             sodipodi:end="6.2825531"
             sodipodi:start="0"
             d="m 25.841538,28.451813 a 2.8284271,4.8211827 0 0 1 -2.82798,4.821182 2.8284271,4.8211827 0 0 1 -2.828874,-4.819658 2.8284271,4.8211827 0 0 1 2.827086,-4.822706 2.8284271,4.8211827 0 0 1 2.829768,4.818134"
             sodipodi:ry="4.8211827"
             sodipodi:rx="2.8284271"
             sodipodi:cy="28.451813"
             sodipodi:cx="23.013111"
             id="path3001"
             style="color:#000000;display:inline;overflow:visible;visibility:visible;fill:#d5ffe6;stroke:#000000;stroke-width:0.90671563;stroke-linecap:round;stroke-linejoin:bevel;stroke-miterlimit:4;stroke-dasharray:none;stroke-dashoffset:0;stroke-opacity:1;marker:none;enable-background:accumulate"
             sodipodi:type="arc" />
          <path
             sodipodi:type="arc"
             style="color:#000000;display:inline;overflow:visible;visibility:visible;fill:#c93bb1;fill-opacity:1;fill-rule:nonzero;stroke:#000000;stroke-width:0.90671563;stroke-linecap:round;stroke-linejoin:bevel;stroke-miterlimit:4;stroke-dasharray:none;stroke-dashoffset:0;stroke-opacity:1;marker:none;enable-background:accumulate"
             id="path3028"
             sodipodi:cx="-31.884089"
             sodipodi:cy="22.216417"
             sodipodi:rx="1.5427784"
             sodipodi:ry="2.4427326"
             d="m -30.34131,22.216417 a 1.5427784,2.4427326 0 0 1 -1.542535,2.442733 1.5427784,2.4427326 0 0 1 -1.543022,-2.441961 1.5427784,2.4427326 0 0 1 1.542047,-2.443504 1.5427784,2.4427326 0 0 1 1.54351,2.441188"
             sodipodi:start="0"
             sodipodi:end="6.2825531"
             sodipodi:open="true"
             transform="matrix(1.1028816,0,0,1.1028816,70.832648,0.48182035)" />
        </g>
      </g>
      <g
         style="stroke-width:0.6228224;stroke-miterlimit:4;stroke-dasharray:none"
         transform="matrix(3.2138381,0,0,3.2138381,-42.305432,-56.812856)"
         id="g3066">
        <path
           sodipodi:type="arc"
           style="color:#000000;display:inline;overflow:visible;visibility:visible;fill:#ff6600;fill-opacity:1;fill-rule:nonzero;stroke:#000000;stroke-width:0.56472278;stroke-linecap:round;stroke-linejoin:bevel;stroke-miterlimit:4;stroke-dasharray:none;stroke-dashoffset:0;stroke-opacity:1;marker:none;enable-background:accumulate"
           id="path3055"
           sodipodi:cx="30.212744"
           sodipodi:cy="42.465385"
           sodipodi:rx="1.1570839"
           sodipodi:ry="1.6070609"
           d="m 31.369828,42.465385 a 1.1570839,1.6070609 0 0 1 -1.156901,1.607061 1.1570839,1.6070609 0 0 1 -1.157267,-1.606553 1.1570839,1.6070609 0 0 1 1.156535,-1.607568 1.1570839,1.6070609 0 0 1 1.157632,1.606044"
           sodipodi:start="0"
           sodipodi:end="6.2825531"
           sodipodi:open="true"
           transform="matrix(1.1028816,0,0,1.1028816,-1.3733791,-7.0060057)" />
        <path
           sodipodi:open="true"
           sodipodi:end="6.2825531"
           sodipodi:start="0"
           d="m 31.369828,42.465385 a 1.1570839,1.6070609 0 0 1 -1.156901,1.607061 1.1570839,1.6070609 0 0 1 -1.157267,-1.606553 1.1570839,1.6070609 0 0 1 1.156535,-1.607568 1.1570839,1.6070609 0 0 1 1.157632,1.606044"
           sodipodi:ry="1.6070609"
           sodipodi:rx="1.1570839"
           sodipodi:cy="42.465385"
           sodipodi:cx="30.212744"
           id="path3057"
           style="color:#000000;display:inline;overflow:visible;visibility:visible;fill:#ff6600;fill-opacity:1;fill-rule:nonzero;stroke:#000000;stroke-width:0.56472278;stroke-linecap:round;stroke-linejoin:bevel;stroke-miterlimit:4;stroke-dasharray:none;stroke-dashoffset:0;stroke-opacity:1;marker:none;enable-background:accumulate"
           sodipodi:type="arc"
           transform="matrix(1.1028816,0,0,1.1028816,-1.3733791,-7.0060057)" />
        <path
           sodipodi:type="arc"
           style="color:#000000;display:inline;overflow:visible;visibility:visible;fill:#ff6600;fill-opacity:1;fill-rule:nonzero;stroke:#000000;stroke-width:0.56472278;stroke-linecap:round;stroke-linejoin:bevel;stroke-miterlimit:4;stroke-dasharray:none;stroke-dashoffset:0;stroke-opacity:1;marker:none;enable-background:accumulate"
           id="path3059"
           sodipodi:cx="30.212744"
           sodipodi:cy="42.465385"
           sodipodi:rx="1.1570839"
           sodipodi:ry="1.6070609"
           d="m 31.369828,42.465385 a 1.1570839,1.6070609 0 0 1 -1.156901,1.607061 1.1570839,1.6070609 0 0 1 -1.157267,-1.606553 1.1570839,1.6070609 0 0 1 1.156535,-1.607568 1.1570839,1.6070609 0 0 1 1.157632,1.606044"
           sodipodi:start="0"
           sodipodi:end="6.2825531"
           sodipodi:open="true"
           transform="matrix(1.1028816,0,0,1.1028816,2.8803756,-7.0060057)" />
      </g>
      <path
         sodipodi:open="true"
         sodipodi:end="0.22295019"
         sodipodi:start="2.9299645"
         d="m 49.76735,72.289987 a 17.837191,8.9374075 0 0 1 7.509883,-9.301948 17.837191,8.9374075 0 0 1 20.025857,0.0568 17.837191,8.9374075 0 0 1 7.299216,9.343954"
         sodipodi:ry="8.9374075"
         sodipodi:rx="17.837191"
         sodipodi:cy="70.412666"
         sodipodi:cx="67.206596"
         id="path3061"
         style="color:#000000;display:inline;overflow:visible;visibility:visible;fill:none;stroke:#000000;stroke-width:2.00165033;stroke-linecap:round;stroke-linejoin:bevel;stroke-miterlimit:4;stroke-dasharray:none;stroke-dashoffset:0;stroke-opacity:1;marker:none;enable-background:accumulate"
         sodipodi:type="arc" />
      <path
         sodipodi:nodetypes="ccc"
         inkscape:connector-curvature="0"
         id="path3870"
         d="m 46.166827,86.853586 c -1.491284,36.159974 6.499346,5.983916 6.662348,3.63669 -2.378988,-1.212229 -4.520046,-2.424461 -6.662348,-3.63669 z"
         style="fill:#dde9af;stroke:#000000;stroke-width:2.00165033;stroke-linecap:butt;stroke-linejoin:miter;stroke-miterlimit:4;stroke-dasharray:none;stroke-opacity:1" />
      <path
         style="fill:#dde9af;stroke:#000000;stroke-width:2.00165033;stroke-linecap:butt;stroke-linejoin:miter;stroke-miterlimit:4;stroke-dasharray:none;stroke-opacity:1"
         d="m 88.491522,86.853586 c 1.491288,36.159974 -6.499342,5.983916 -6.662345,3.63669 2.378989,-1.212229 4.520048,-2.424461 6.662345,-3.63669 z"
         id="path3872"
         inkscape:connector-curvature="0"
         sodipodi:nodetypes="ccc" />
    </g>
    <g
       id="g933"
       transform="matrix(1.0408176,0,0,1.0408176,-0.25988264,-3.7455027)">
      <flowRoot
         transform="matrix(1.0261789,0,0,1.0261789,-20.680549,13.919036)"
         style="font-style:normal;font-variant:normal;font-weight:normal;font-stretch:normal;font-size:42.66666794px;line-height:1.25;font-family:'Ubuntu Mono';-inkscape-font-specification:'Ubuntu Mono';letter-spacing:0px;word-spacing:0px;fill:#d3bc5f;fill-opacity:1;stroke:none"
         id="flowRoot899"
         xml:space="preserve"><flowRegion
           style="font-style:normal;font-variant:normal;font-weight:normal;font-stretch:normal;font-size:42.66666794px;font-family:'Ubuntu Mono';-inkscape-font-specification:'Ubuntu Mono';fill:#d3bc5f"
           id="flowRegion901"><rect
             style="font-style:normal;font-variant:normal;font-weight:normal;font-stretch:normal;font-size:42.66666794px;font-family:'Ubuntu Mono';-inkscape-font-specification:'Ubuntu Mono';fill:#d3bc5f"
             y="0.51373893"
             x="23.327946"
             height="60.263863"
             width="413.29346"
             id="rect903" /></flowRegion><flowPara
           id="flowPara905">python-wavefile</flowPara></flowRoot>      <flowRoot
         xml:space="preserve"
         id="flowRoot913"
         style="font-style:normal;font-variant:normal;font-weight:normal;font-stretch:normal;font-size:42.66666794px;line-height:1.25;font-family:'Standard Symbols L';-inkscape-font-specification:'Standard Symbols L';letter-spacing:0px;word-spacing:0px;fill:#000000;fill-opacity:1;stroke:none"
         transform="matrix(1.0261789,0,0,1.0261789,-20.680549,11.866678)"><flowRegion
           id="flowRegion909"
           style="font-style:normal;font-variant:normal;font-weight:normal;font-stretch:normal;font-size:42.66666794px;font-family:'Standard Symbols L';-inkscape-font-specification:'Standard Symbols L'"><rect
             id="rect907"
             width="413.29346"
             height="60.263863"
             x="23.327946"
             y="0.51373893"
             style="font-style:normal;font-variant:normal;font-weight:normal;font-stretch:normal;font-size:42.66666794px;font-family:'Standard Symbols L';-inkscape-font-specification:'Standard Symbols L'" /></flowRegion><flowPara
           style="font-style:normal;font-variant:normal;font-weight:normal;font-stretch:normal;font-family:'Ubuntu Mono';-inkscape-font-specification:'Ubuntu Mono'"
           id="flowPara911">python-wavefile</flowPara></flowRoot>    </g>
    <flowRoot
       xml:space="preserve"
       id="flowRoot915"
       style="font-style:normal;font-weight:normal;font-size:26.66666603px;line-height:1.25;font-family:sans-serif;letter-spacing:0px;word-spacing:0px;fill:#000000;fill-opacity:1;stroke:none"
       transform="translate(0,4)"><flowRegion
         id="flowRegion917"><rect
           id="rect919"
           width="394.78867"
           height="150.10767"
           x="-39.03899"
           y="-49.96899" /></flowRegion><flowPara
         id="flowPara921"></flowPara></flowRoot>  </g>
</svg>
